Coordinates
version=1
nRows=29
nColumns=24
inDegrees=yes

Units are S.I. units (second, meters, Newtons, ...)
Angles are in degrees.

endheader
time	pelvis_tilt	pelvis_list	pelvis_rotation	pelvis_tx	pelvis_ty	pelvis_tz	hip_flexion_r	hip_adduction_r	hip_rotation_r	knee_angle_r	ankle_angle_r	subtalar_angle_r	mtp_angle_r	hip_flexion_l	hip_adduction_l	hip_rotation_l	knee_angle_l	ankle_angle_l	subtalar_angle_l	mtp_angle_l	lumbar_extension	lumbar_bending	lumbar_rotation
      4.50000000	      1.40988013	     -2.18108779	      0.91539701	     -2.15031228	      0.74267615	      0.28220236	      8.48937394	      6.84701337	      6.40834972	    -13.00441359	     11.22628056	    -16.89130153	      0.00000000	      7.20835693	     -2.65320735	     -0.91810843	    -61.70451198	    -14.28410064	    -19.92453820	      0.00000000	    -24.96089830	      5.05097039	    -12.96328936
      4.51000000	      1.12417866	     -1.64587371	      0.22539887	     -2.13738490	      0.74568996	      0.28399699	      6.74078595	      6.26882327	      6.59041827	    -11.26192158	     11.28243383	    -16.10292630	      0.00000000	      8.99976284	     -1.98008028	     -1.96345215	    -61.27256766	    -10.65670151	    -19.36038825	      0.00000000	    -24.45236706	      4.04297164	    -12.31577498
      4.52000000	      0.82033865	     -1.06019673	     -0.50040587	     -2.12457540	      0.74836737	      0.28583210	      5.13737965	      5.63548511	      6.72946299	     -9.68091722	     11.32414619	    -15.31920363	      0.00000000	     10.74618207	     -1.32606127	     -3.15619402	    -60.49921824	     -7.59799642	    -19.21894205	      0.00000000	    -23.94839601	      2.98720588	    -11.64907360
      4.53000000	      0.51390240	     -0.46645214	     -1.23139674	     -2.11191441	      0.75067079	      0.28765562	      3.68308228	      4.99133195	      6.76476341	     -8.29198421	     11.37973384	    -14.52669670	      0.00000000	     12.43767325	     -0.73051277	     -4.44594019	    -59.41370565	     -5.17973718	    -19.54348855	      0.00000000	    -23.47568333	      1.94680216	    -10.98144271
      4.54000000	      0.22872699	      0.09345016	     -1.95548506	     -2.09941578	      0.75259329	      0.28943000	      2.36111738	      4.37890410	      6.63223946	     -7.11271354	     11.51191976	    -13.64143349	      0.00000000	     14.04279063	     -0.22660001	     -5.78927244	    -58.03379779	     -3.34892355	    -20.28883303	      0.00000000	    -23.07072530	      0.97289567	    -10.30594514
      4.55000000	     -0.09029923	      0.55903088	     -2.70119833	     -2.08710926	      0.75403467	      0.29117716	      1.19877958	      3.87665068	      6.60972398	     -6.10530349	     11.50568874	    -13.07723052	      0.00000000	     15.62397006	      0.10635700	     -7.19660681	    -56.40243449	     -2.02316494	    -21.38366587	      0.00000000	    -22.67557288	      0.12246112	     -9.56930601
      4.56000000	     -0.26190916	      0.95290078	     -3.43236999	     -2.07491817	      0.75524914	      0.29279417	      0.01682770	      3.42583374	      6.25939020	     -5.29825086	     11.77210823	    -12.08011473	      0.00000000	     16.92186354	      0.38536866	     -8.51821159	    -54.42275498	     -1.23932086	    -22.92223891	      0.00000000	    -22.50130811	     -0.61940455	     -8.84579085
      4.57000000	     -0.47923368	      1.15317303	     -4.24052177	     -2.06290837	      0.75593669	      0.29445393	     -1.02769560	      3.19395865	      6.27038641	     -4.64326416	     11.86898827	    -11.58338858	      0.00000000	     18.20512499	      0.33016547	     -9.98583463	    -52.28464121	     -0.36210697	    -24.01381816	      0.00000000	    -22.32668291	     -1.15388329	     -7.97704014
      4.58000000	     -0.55359535	      1.26501276	     -5.04341063	     -2.05097823	      0.75642297	      0.29594138	     -2.10677097	      3.01754615	      5.94796538	     -4.18075371	     12.26844433	    -10.56924582	      0.00000000	     19.17931485	      0.26792624	    -11.25952569	    -49.78644482	     -0.02370380	    -25.57747788	      0.00000000	    -22.36454416	     -1.57207933	     -7.12863170
      4.59000000	     -0.60342590	      1.21697309	     -5.93615556	     -2.03915769	      0.75651469	      0.29747649	     -3.17047079	      3.00315028	      6.08561754	     -3.81937369	     12.47849530	    -10.18608964	      0.00000000	     20.02239127	     -0.06143581	    -12.66669973	    -47.11162501	      0.63487274	    -26.35064100	      0.00000000	    -22.47492139	     -1.84289945	     -6.16916124
      4.60000000	     -0.57969662	      1.07707356	     -6.83872756	     -2.02737109	      0.75633978	      0.29889223	     -4.26816888	      3.05170194	      6.26663772	     -3.56265557	     12.76078104	     -9.80250270	      0.00000000	     20.64291802	     -0.43613978	    -13.95682099	    -44.15952709	      1.16956435	    -26.93002287	      0.00000000	    -22.70556638	     -2.00718740	     -5.20367617
      4.61000000	     -0.46386634	      0.88435620	     -7.72137350	     -2.01556096	      0.75594518	      0.30018249	     -5.42989629	      3.11749203	      6.39226436	     -3.39726085	     13.12652796	     -9.35808529	      0.00000000	     21.01330747	     -0.78796068	    -15.09637114	    -40.92132209	      1.76661616	    -27.05515348	      0.00000000	    -23.06492528	     -2.11541710	     -4.31152273
      4.62000000	     -0.40840554	      0.56275765	     -8.60765934	     -2.00375815	      0.75515243	      0.30142716	     -6.47783058	      3.30930637	      6.48117792	     -3.37105466	     13.58903160	     -8.86613685	      0.00000000	     21.34527366	     -1.28756676	    -16.20569443	    -37.53962078	      2.56215078	    -26.37094718	      0.00000000	    -23.37654278	     -2.08240595	     -3.37704060
      4.63000000	     -0.32814981	      0.25869593	     -9.42016726	     -1.99184556	      0.75409680	      0.30250513	     -7.59165001	      3.45472055	      6.65400823	     -3.31827023	     14.04187275	     -8.60160184	      0.00000000	     21.49450867	     -1.62859364	    -17.01515482	    -33.84632686	      3.18612163	    -25.48009585	      0.00000000	    -23.70519962	     -2.04127579	     -2.55421767
      4.64000000	     -0.34630481	     -0.16227302	    -10.19748246	     -1.97986789	      0.75264845	      0.30355925	     -8.58290156	      3.72897454	      6.77896450	     -3.37780176	     14.51547615	     -8.25995237	      0.00000000	     21.64658348	     -2.09753509	    -17.74510091	    -30.03914708	      4.09629566	    -23.65743402	      0.00000000	    -23.92073302	     -1.85532098	     -1.77778752
      4.65000000	     -0.32779039	     -0.56621346	    -10.85991913	     -1.96769448	      0.75098623	      0.30442886	     -9.67243769	      3.95666628	      6.82791069	     -3.38319552	     14.94832684	     -7.99281836	      0.00000000	     21.58746023	     -2.37851322	    -18.04073183	    -25.91508266	      4.67504541	    -21.91769399	      0.00000000	    -24.14822182	     -1.64162311	     -1.14212576
      4.66000000	     -0.37180934	     -1.00874690	    -11.46130155	     -1.95533064	      0.74899902	      0.30524816	    -10.72811669	      4.21730282	      6.85989238	     -3.40330910	     15.43796054	     -7.70140548	      0.00000000	     21.45293138	     -2.64669735	    -18.05799386	    -21.61548081	      5.00922547	    -20.06029557	      0.00000000	    -24.26305598	     -1.35116815	     -0.55359458
      4.67000000	     -0.44495722	     -1.46514784	    -12.01158407	     -1.94272202	      0.74673391	      0.30601691	    -11.80309434	      4.47039687	      7.01558874	     -3.41268593	     15.88566844	     -7.51873628	      0.00000000	     21.17298611	     -2.85110797	    -17.63335426	    -17.11123710	      4.82499849	    -18.71206675	      0.00000000	    -24.28785060	     -1.01215288	     -0.04698415
      4.68000000	     -0.53493148	     -2.01154524	    -12.50207379	     -1.92982862	      0.74420011	      0.30678045	    -12.92187363	      4.79119826	      7.18447260	     -3.41365635	     16.33609943	     -7.32258559	      0.00000000	     20.82545382	     -3.17231426	    -16.99838751	    -12.71228308	      4.60142922	    -17.38367344	      0.00000000	    -24.24487031	     -0.55143456	      0.48252038
      4.69000000	     -0.61798054	     -2.58968143	    -12.98657517	     -1.91665086	      0.74148357	      0.30758288	    -14.04748614	      5.09905104	      7.43441705	     -3.50399563	     16.69794067	     -7.01202838	      0.00000000	     20.43915096	     -3.59861304	    -16.46704202	     -8.59119835	      4.26915658	    -16.15352712	      0.00000000	    -24.16357086	     -0.04657628	      0.92343739
      4.70000000	     -0.73699835	     -3.18068302	    -13.46159869	     -1.90319702	      0.73858021	      0.30838873	    -15.12162634	      5.38154301	      7.83798967	     -3.69109997	     17.09265329	     -6.71310215	      0.00000000	     20.16500405	     -4.11817733	    -16.10683454	     -5.00584286	      3.99596831	    -15.04385846	      0.00000000	    -23.98609438	      0.49091447	      1.39828795
      4.71000000	     -0.74496422	     -3.65496289	    -13.94576128	     -1.88941104	      0.73574945	      0.30922293	    -16.26009149	      5.46117826	      8.30280254	     -3.97972389	     17.44106346	     -6.36056152	      0.00000000	     19.90051554	     -4.55378298	    -16.20989070	     -2.08189505	      3.89043798	    -13.78610329	      0.00000000	    -23.85326075	      0.85003164	      1.82154715
      4.72000000	     -0.79413303	     -4.06056743	    -14.43611771	     -1.87543188	      0.73295068	      0.30998734	    -17.23469269	      5.43668420	      8.96270641	     -4.49266629	     17.70543047	     -6.02422350	      0.00000000	     19.92848757	     -4.97365166	    -17.08582467	     -0.07469530	      4.27762238	    -11.82328056	      0.00000000	    -23.64930971	      1.16351237	      2.20628310
      4.73000000	     -0.74223708	     -4.29402583	    -14.90891309	     -1.86112572	      0.73033018	      0.31062544	    -18.18102897	      5.17241791	      9.64874178	     -5.19801043	     17.87378547	     -5.69227916	      0.00000000	     19.83846491	     -5.13679413	    -17.45378603	      1.42473414	      4.14185589	    -11.15999237	      0.00000000	    -23.48198885	      1.26879236	      2.52153025
      4.74000000	     -0.69199103	     -4.42928251	    -15.33742273	     -1.84660809	      0.72788072	      0.31111370	    -18.93830693	      4.80781904	     10.36132613	     -6.20647268	     17.88922049	     -5.32767496	      0.00000000	     19.85707506	     -5.19130027	    -17.64261659	      2.15717964	      3.88884023	    -10.94747166	      0.00000000	    -23.28415202	      1.28606597	      2.75479755
      4.75000000	     -0.51573533	     -4.35971015	    -15.68649292	     -1.83179364	      0.72577788	      0.31141755	    -19.62146711	      4.22080518	     10.94896185	     -7.48200493	     17.68929024	     -4.97304877	      0.00000000	     19.80858543	     -4.98011589	    -17.66207407	      2.23107662	      3.43086374	    -11.06021449	      0.00000000	    -23.15091684	      1.06175447	      2.87330856
      4.76000000	     -0.24320820	     -4.21200191	    -15.85202577	     -1.81670900	      0.72397132	      0.31139911	    -20.13678873	      3.59545759	     11.09996223	     -9.18304690	     17.37064224	     -4.23105246	      0.00000000	     19.47403800	     -4.56949726	    -15.88209667	      2.05530589	      1.73008007	    -13.81532297	      0.00000000	    -23.09350504	      0.79099230	      2.75575994
      4.77000000	      0.11383383	     -3.89644210	    -15.90796244	     -1.80150820	      0.72260734	      0.31118343	    -20.43216764	      2.86122042	     11.17098760	    -11.31679446	     16.71904658	     -3.57275407	      0.00000000	     19.15538540	     -3.94903326	    -13.86389687	      1.24804813	     -0.28085294	    -16.87075241	      0.00000000	    -23.09754626	      0.32990089	      2.55314265
      4.78000000	      0.44478908	     -3.42844674	    -15.74112359	     -1.78628706	      0.72158399	      0.31064874	    -20.30162282	      2.12121093	     10.90982130	    -14.02472796	     15.74545081	     -2.86997439	      0.00000000	     19.02598965	     -3.11472252	    -11.44053307	     -0.17039770	     -2.59671142	    -20.30148277	      0.00000000	    -23.05610329	     -0.22335898	      2.11128582
